<?xml version="1.0" encoding="UTF-8"?>
<svg xmlns="http://www.w3.org/2000/svg" width="48" height="41" viewBox="72 31 48 41">
<path transform="matrix(1,0,0,-1,0,136.592)" d="M121.35 96.014H122.71V94.654H121.35Z" fill="#fb1700"/>
<path transform="matrix(1,0,0,-1,0,136.592)" d="M122.71 94.668H124.07V93.308H122.71Z" fill="#fb1700"/>
<path transform="matrix(1,0,0,-1,0,136.592)" d="M124.07 93.308H125.43V91.948H124.07Z" fill="#fb1700"/>
<path transform="matrix(1,0,0,-1,0,136.592)" d="M125.431 91.948H126.791V90.588H125.431Z" fill="#fb1700"/>
<path transform="matrix(1,0,0,-1,0,136.592)" d="M126.791 90.587H128.151V89.227H126.791Z" fill="#fb1700"/>
<path transform="matrix(1,0,0,-1,0,136.592)" d="M125.431 89.227H126.791V87.867H125.431Z" fill="#fb1700"/>
<path transform="matrix(1,0,0,-1,0,136.592)" d="M124.07 87.867H125.43V86.506999H124.07Z" fill="#fb1700"/>
<path transform="matrix(1,0,0,-1,0,136.592)" d="M122.71 86.507H124.07V85.147H122.71Z" fill="#fb1700"/>
<path transform="matrix(1,0,0,-1,0,136.592)" d="M121.35 85.146H122.71V83.786H121.35Z" fill="#fb1700"/>
<path transform="matrix(1,0,0,-1,0,136.592)" d="M74.398 58.826H75.568V57.656003H74.398Z" fill="#fb1700"/>
<path transform="matrix(1,0,0,-1,0,136.592)" d="M77.048 58.827H78.217998V57.657H77.048Z" fill="#fb1700"/>
<path transform="matrix(1,0,0,-1,0,136.592)" d="M79.698 58.827H80.868V57.657H79.698Z" fill="#fb1700"/>
<path transform="matrix(1,0,0,-1,0,136.592)" d="M82.348 58.828H83.518V57.658H82.348Z" fill="#fb1700"/>
<path transform="matrix(1,0,0,-1,0,136.592)" d="M84.998 58.829H86.168V57.659H84.998Z" fill="#fb1700"/>
<path transform="matrix(1,0,0,-1,0,136.592)" d="M87.648 58.829H88.818V57.659H87.648Z" fill="#fb1700"/>
<path transform="matrix(1,0,0,-1,0,136.592)" d="M90.299 58.83H91.469V57.660005H90.299Z" fill="#fb1700"/>
<path transform="matrix(1,0,0,-1,0,136.592)" d="M92.949 58.831H94.118999V57.661005H92.949Z" fill="#fb1700"/>
<path transform="matrix(1,0,0,-1,0,136.592)" d="M95.599 58.831H96.769V57.661005H95.599Z" fill="#fb1700"/>
<path transform="matrix(1,0,0,-1,0,136.592)" d="M98.249 58.832H99.419V57.662004H98.249Z" fill="#fb1700"/>
<path transform="matrix(1,0,0,-1,0,136.592)" d="M100.899 58.833H102.069V57.663003H100.899Z" fill="#fb1700"/>
<path transform="matrix(1,0,0,-1,0,136.592)" d="M103.549 58.834H104.719V57.664H103.549Z" fill="#fb1700"/>
<path transform="matrix(1,0,0,-1,0,136.592)" d="M106.2 58.834H107.369998V57.664H106.2Z" fill="#fb1700"/>
<path transform="matrix(1,0,0,-1,0,136.592)" d="M108.85 58.835H110.02V57.665H108.85Z" fill="#fb1700"/>
<path transform="matrix(1,0,0,-1,0,136.592)" d="M111.5 58.836H112.67V57.666H111.5Z" fill="#fb1700"/>
<path transform="matrix(1,0,0,-1,0,136.592)" d="M114.15 58.836H115.32V57.666H114.15Z" fill="#fb1700"/>
<path transform="matrix(1,0,0,-1,0,136.592)" d="M116.8 58.837H117.97V57.667005H116.8Z" fill="#fb1700"/>
<path transform="matrix(1,0,0,-1,0,136.592)" d="M119.45 58.838H120.619998V57.668004H119.45Z" fill="#fb1700"/>
<path transform="matrix(1,0,0,-1,0,136.592)" d="M122.1 58.839H123.27V57.669004H122.1Z" fill="#fb1700"/>
<path transform="matrix(1,0,0,-1,0,136.592)" d="M124.751 58.839H125.921V57.669004H124.751Z" fill="#fb1700"/>
<path transform="matrix(1,0,0,-1,0,136.592)" d="M78.265 79.575H79.422V78.418H78.265Z" fill="#fb1700"/>
<path transform="matrix(1,0,0,-1,0,136.592)" d="M77.108 71.696H78.265V70.539H77.108Z" fill="#fb1700"/>
<path transform="matrix(1,0,0,-1,0,136.592)" d="M79.422 73.015H81.621997V71.858H79.422Z" fill="#fb1700"/>
<path transform="matrix(1,0,0,-1,0,136.592)" d="M79.422 70.442H81.621997V69.285H79.422Z" fill="#fb1700"/>
<path transform="matrix(1,0,0,-1,0,136.592)" d="M80.624 71.858H82.432V70.442H80.624Z" fill="#fb1700"/>
<path transform="matrix(1,0,0,-1,0,136.592)" d="M79.422 81.116H80.578998V79.959H79.422Z" fill="#fb1700"/>
<path transform="matrix(1,0,0,-1,0,136.592)" d="M80 85.521H81.157V84.364009H80Z" fill="#fb1700"/>
<path transform="matrix(1,0,0,-1,0,136.592)" d="M106.855 91.385H107.769008V88.095H106.855Z" fill="#fb1700"/>
<path transform="matrix(1,0,0,-1,0,136.592)" d="M85.584 100.486H87.315V99.899H85.584Z" fill="#fb1700"/>
<path transform="matrix(1,0,0,-1,0,136.592)" d="M86.156 101.058H86.743V99.326999H86.156Z" fill="#fb1700"/>
<path transform="matrix(1,0,0,-1,0,136.592)" d="M87.16 96.143H88.89101V95.556H87.16Z" fill="#fb1700"/>
<path transform="matrix(1,0,0,-1,0,136.592)" d="M87.732 96.715H88.319V94.98399H87.732Z" fill="#fb1700"/>
<path transform="matrix(1,0,0,-1,0,136.592)" d="M111.335 86.641H113.378V85.948H111.335Z" fill="#fb1700"/>
<path transform="matrix(1,0,0,-1,0,136.592)" d="M112.01 87.316H112.703V85.273H112.01Z" fill="#fb1700"/>
<path transform="matrix(1,0,0,-1,0,136.592)" d="M112.828 75.848H114.871V75.155H112.828Z" fill="#fb1700"/>
<path transform="matrix(1,0,0,-1,0,136.592)" d="M113.503 76.523H114.196V74.48H113.503Z" fill="#fb1700"/>
<path transform="matrix(1,0,0,-1,0,136.592)" d="M96.227 81.651H98.27V80.958H96.227Z" fill="#fb1700"/>
<path transform="matrix(1,0,0,-1,0,136.592)" d="M96.902 82.325H97.595V80.282H96.902Z" fill="#fb1700"/>
<path transform="matrix(1,0,0,-1,0,136.592)" d="M96.67 90.507H97.826999V89.350009H96.67Z" fill="#fb1700"/>
<path transform="matrix(1,0,0,-1,0,136.592)" d="M90.369 94.984H91.263V91.926H90.369Z" fill="#fb1700"/>
<path transform="matrix(1,0,0,-1,0,136.592)" d="M90.369 92.82H93.256008V91.926H90.369Z" fill="#fb1700"/>
<path transform="matrix(1,0,0,-1,0,136.592)" d="M90.367 103.796H93.300998V102.902H90.367Z" fill="#fb1700"/>
<path transform="matrix(1,0,0,-1,0,136.592)" d="M94.526 101.643H99.466V100.276H94.526Z" fill="#fb1700"/>
<path transform="matrix(1,0,0,-1,0,136.592)" d="M100.737 96.143H99.465999V100.276H100.737Z" fill="#fb1700"/>
<path transform="matrix(1,0,0,-1,0,136.592)" d="M94.528 96.143H93.3V100.276H94.528Z" fill="#fb1700"/>
<path transform="matrix(1,0,0,-1,0,136.592)" d="M97.611 97.456H96.383V100.276H97.611Z" fill="#fb1700"/>
<path transform="matrix(1,0,0,-1,0,136.592)" d="M95.756 94.333H94.528V97.153H95.756Z" fill="#fb1700"/>
<path transform="matrix(1,0,0,-1,0,136.592)" d="M99.466 94.278H98.23801V97.098H99.466Z" fill="#fb1700"/>
<path transform="matrix(1,0,0,-1,0,136.592)" d="M97.611 94.278H96.383V96.305H97.611Z" fill="#fb1700"/>
<path transform="matrix(1,0,0,-1,0,136.592)" d="M96.383 95.632H95.756008V97.659008H96.383Z" fill="#fb1700"/>
<path transform="matrix(1,0,0,-1,0,136.592)" d="M95.277 99.329H94.528V100.275H95.277Z" fill="#fb1700"/>
<path transform="matrix(1,0,0,-1,0,136.592)" d="M99.542 99.329H98.793V100.275H99.542Z" fill="#fb1700"/>
<path transform="matrix(1,0,0,-1,0,136.592)" d="M100.216 100.276H99.467V100.787H100.216Z" fill="#fb1700"/>
<path transform="matrix(1,0,0,-1,0,136.592)" d="M100.102 95.632H99.353V96.143009H100.102Z" fill="#fb1700"/>
<path transform="matrix(1,0,0,-1,0,136.592)" d="M94.663 95.632H93.914V96.143009H94.663Z" fill="#fb1700"/>
<path transform="matrix(1,0,0,-1,0,136.592)" d="M94.528 100.276H93.779V100.787H94.528Z" fill="#fb1700"/>
<path transform="matrix(1,0,0,-1,0,136.592)" d="M98.239 95.632H97.612V97.659008H98.239Z" fill="#fb1700"/>
<path transform="matrix(1,0,0,-1,0,136.592)" d="M91.261 100.634H90.367008V103.797008H91.261Z" fill="#fb1700"/>
<path transform="matrix(1,0,0,-1,0,136.592)" d="M103.723 100.634H102.829V103.793H103.723Z" fill="#fb1700"/>
<path transform="matrix(1,0,0,-1,0,136.592)" d="M103.723 102.898H100.737V103.792H103.723Z" fill="#fb1700"/>
<path transform="matrix(1,0,0,-1,0,136.592)" d="M102.777 94.984H103.671V91.926H102.777Z" fill="#fb1700"/>
<path transform="matrix(1,0,0,-1,0,136.592)" d="M101.114 86.331H102.007999V83.021H101.114Z" fill="#fb1700"/>
<path transform="matrix(1,0,0,-1,0,136.592)" d="M99.906 85.123H103.215999V84.229007H99.906Z" fill="#fb1700"/>
<path transform="matrix(1,0,0,-1,0,136.592)" d="M97.504 75.673H98.397998V72.363H97.504Z" fill="#fb1700"/>
<path transform="matrix(1,0,0,-1,0,136.592)" d="M96.296 74.465H99.605998V73.571H96.296Z" fill="#fb1700"/>
<path transform="matrix(1,0,0,-1,0,136.592)" d="M100.318 79.833H101.212V76.523H100.318Z" fill="#fb1700"/>
<path transform="matrix(1,0,0,-1,0,136.592)" d="M99.11 78.625H102.42V77.731H99.11Z" fill="#fb1700"/>
<path transform="matrix(1,0,0,-1,0,136.592)" d="M100.785 92.82H103.672008V91.926H100.785Z" fill="#fb1700"/>
<path transform="matrix(1,0,0,-1,0,136.592)" d="M103.427 81.304H104.584V80.147H103.427Z" fill="#fb1700"/>
<path transform="matrix(1,0,0,-1,0,136.592)" d="M113.503 70.508H114.659999V69.351009H113.503Z" fill="#fb1700"/>
<path transform="matrix(1,0,0,-1,0,136.592)" d="M98.785 70.442H100.924V69.285H98.785Z" fill="#fb1700"/>
<path transform="matrix(1,0,0,-1,0,136.592)" d="M94.431 70.508H96.297V69.351009H94.431Z" fill="#fb1700"/>
<path transform="matrix(1,0,0,-1,0,136.592)" d="M94.431 76.426H95.447V75.269008H94.431Z" fill="#fb1700"/>
<path transform="matrix(1,0,0,-1,0,136.592)" d="M103.427 76.426H104.584V75.269008H103.427Z" fill="#fb1700"/>
<path transform="matrix(1,0,0,-1,0,136.592)" d="M93.589 80.05H96.296V78.893009H93.589Z" fill="#fb1700"/>
<path transform="matrix(1,0,0,-1,0,136.592)" d="M93.585 81.207H94.742V80.05H93.585Z" fill="#fb1700"/>
<path transform="matrix(1,0,0,-1,0,136.592)" d="M92.228 84.753H93.589V83.596H92.228Z" fill="#fb1700"/>
<path transform="matrix(1,0,0,-1,0,136.592)" d="M112.305 71.761H113.115V70.604007H112.305Z" fill="#fb1700"/>
<path transform="matrix(1,0,0,-1,0,136.592)" d="M110.113 75.279H109.187V75.985H110.113ZM108.107 74.122H111.193V77.786H108.107Z" fill="#fb1700"/>
<path transform="matrix(1,0,0,-1,0,136.592)" d="M102.27 75.279H104.538997V74.122H102.27Z" fill="#fb1700"/>
<path transform="matrix(1,0,0,-1,0,136.592)" d="M110.181 80.148H109.024V81.305H110.181ZM108.107 80.148H106.950008V81.305H108.107ZM105.791 78.894H111.194V82.558H105.791Z" fill="#fb1700"/>
<path transform="matrix(1,0,0,-1,0,136.592)" d="M110.181 70.605H109.024V71.762H110.181ZM108.107 70.605H106.950008V71.762H108.107ZM104.539 69.285H111.193V72.949008H104.539Z" fill="#fb1700"/>
<path transform="matrix(1,0,0,-1,0,136.592)" d="M94.07 88.769H95.227V87.612H94.07Z" fill="#fb1700"/>
<path transform="matrix(1,0,0,-1,0,136.592)" d="M89.524 89.418H90.681V88.261H89.524Z" fill="#fb1700"/>
<path transform="matrix(1,0,0,-1,0,136.592)" d="M95.232 87.612H96.389V86.455H95.232Z" fill="#fb1700"/>
<path transform="matrix(1,0,0,-1,0,136.592)" d="M88.255 88.262H83.263V91.926H88.255Z" fill="#fb1700"/>
<path transform="matrix(1,0,0,-1,0,136.592)" d="M92.228 83.597H86.836V87.261H92.228Z" fill="#fb1700"/>
<path transform="matrix(1,0,0,-1,0,136.592)" d="M85.759 83.597H83.263V87.261H85.759Z" fill="#fb1700"/>
<path transform="matrix(1,0,0,-1,0,136.592)" d="M93.589 78.894H91.092998V82.558H93.589Z" fill="#fb1700"/>
<path transform="matrix(1,0,0,-1,0,136.592)" d="M90.102 78.894H82.015V82.558H90.102Z" fill="#fb1700"/>
<path transform="matrix(1,0,0,-1,0,136.592)" d="M94.431 74.122H86.836V77.786H94.431Z" fill="#fb1700"/>
<path transform="matrix(1,0,0,-1,0,136.592)" d="M90.102 69.285H83.498V72.949008H90.102Z" fill="#fb1700"/>
<path transform="matrix(1,0,0,-1,0,136.592)" d="M94.431 69.351H91.129V73.015H94.431Z" fill="#fb1700"/>
<path transform="matrix(1,0,0,-1,0,136.592)" d="M103.427 69.285H100.924V72.949008H103.427Z" fill="#fb1700"/>
<path transform="matrix(1,0,0,-1,0,136.592)" d="M107.042 74.122H104.539V77.786H107.042Z" fill="#fb1700"/>
<path transform="matrix(1,0,0,-1,0,136.592)" d="M85.759 74.122H79.422008V77.786H85.759Z" fill="#fb1700"/>
<path transform="matrix(1,0,0,-1,0,136.592)" d="M105.667 90.197H108.957V89.283H105.667Z" fill="#fb1700"/>
</svg>
