<?xml version="1.0" encoding="UTF-8"?>
<svg xmlns="http://www.w3.org/2000/svg" width="47" height="41" viewBox="17 31 47 41">
<path transform="matrix(1,0,0,-1,0,136.592)" d="M65.315 96.016H66.675V94.656H65.315Z" fill="#3371ff"/>
<path transform="matrix(1,0,0,-1,0,136.592)" d="M66.675 94.67H68.035V93.31H66.675Z" fill="#3371ff"/>
<path transform="matrix(1,0,0,-1,0,136.592)" d="M68.036 93.31H69.396V91.95H68.036Z" fill="#3371ff"/>
<path transform="matrix(1,0,0,-1,0,136.592)" d="M69.396 91.95H70.756008V90.59H69.396Z" fill="#3371ff"/>
<path transform="matrix(1,0,0,-1,0,136.592)" d="M70.756 90.589H72.116V89.229H70.756Z" fill="#3371ff"/>
<path transform="matrix(1,0,0,-1,0,136.592)" d="M69.396 89.229H70.756008V87.868999H69.396Z" fill="#3371ff"/>
<path transform="matrix(1,0,0,-1,0,136.592)" d="M68.036 87.869H69.396V86.509H68.036Z" fill="#3371ff"/>
<path transform="matrix(1,0,0,-1,0,136.592)" d="M66.675 86.508H68.035V85.148H66.675Z" fill="#3371ff"/>
<path transform="matrix(1,0,0,-1,0,136.592)" d="M65.315 85.148H66.675V83.788H65.315Z" fill="#3371ff"/>
<path transform="matrix(1,0,0,-1,0,136.592)" d="M31.995 58.814H33.165V57.644H31.995Z" fill="#3371ff"/>
<path transform="matrix(1,0,0,-1,0,136.592)" d="M34.645 58.815H35.815V57.645H34.645Z" fill="#3371ff"/>
<path transform="matrix(1,0,0,-1,0,136.592)" d="M37.296 58.816H38.466V57.646005H37.296Z" fill="#3371ff"/>
<path transform="matrix(1,0,0,-1,0,136.592)" d="M39.946 58.817H41.115999V57.647005H39.946Z" fill="#3371ff"/>
<path transform="matrix(1,0,0,-1,0,136.592)" d="M42.596 58.817H43.766V57.647005H42.596Z" fill="#3371ff"/>
<path transform="matrix(1,0,0,-1,0,136.592)" d="M45.246 58.818H46.415998V57.648004H45.246Z" fill="#3371ff"/>
<path transform="matrix(1,0,0,-1,0,136.592)" d="M47.896 58.819H49.065999V57.649003H47.896Z" fill="#3371ff"/>
<path transform="matrix(1,0,0,-1,0,136.592)" d="M50.546 58.819H51.716V57.649003H50.546Z" fill="#3371ff"/>
<path transform="matrix(1,0,0,-1,0,136.592)" d="M53.196 58.82H54.365999V57.65H53.196Z" fill="#3371ff"/>
<path transform="matrix(1,0,0,-1,0,136.592)" d="M55.847 58.821H57.017V57.651H55.847Z" fill="#3371ff"/>
<path transform="matrix(1,0,0,-1,0,136.592)" d="M58.497 58.822H59.667V57.652H58.497Z" fill="#3371ff"/>
<path transform="matrix(1,0,0,-1,0,136.592)" d="M61.147 58.822H62.316999V57.652H61.147Z" fill="#3371ff"/>
<path transform="matrix(1,0,0,-1,0,136.592)" d="M63.797 58.823H64.967V57.653005H63.797Z" fill="#3371ff"/>
<path transform="matrix(1,0,0,-1,0,136.592)" d="M66.447 58.824H67.617V57.654005H66.447Z" fill="#3371ff"/>
<path transform="matrix(1,0,0,-1,0,136.592)" d="M69.097 58.824H70.267V57.654005H69.097Z" fill="#3371ff"/>
<path transform="matrix(1,0,0,-1,0,136.592)" d="M71.748 58.825H72.918V57.655004H71.748Z" fill="#3371ff"/>
<path transform="matrix(1,0,0,-1,0,136.592)" d="M29.132 57.147H26.967V59.312H29.132ZM25.903 56.082H30.197V60.376H25.903Z" fill="#3371ff"/>
<path transform="matrix(1,0,0,-1,0,136.592)" d="M58.735 87.205H60.466V86.618007H58.735Z" fill="#3371ff"/>
<path transform="matrix(1,0,0,-1,0,136.592)" d="M59.307 87.777H59.894V86.046H59.307Z" fill="#3371ff"/>
<path transform="matrix(1,0,0,-1,0,136.592)" d="M52.634 99.669H54.364999V99.082H52.634Z" fill="#3371ff"/>
<path transform="matrix(1,0,0,-1,0,136.592)" d="M53.206 100.241H53.793004V98.509998H53.206Z" fill="#3371ff"/>
<path transform="matrix(1,0,0,-1,0,136.592)" d="M47.239 103.495H48.969999V102.908008H47.239Z" fill="#3371ff"/>
<path transform="matrix(1,0,0,-1,0,136.592)" d="M47.811 104.067H48.398004V102.336H47.811Z" fill="#3371ff"/>
<path transform="matrix(1,0,0,-1,0,136.592)" d="M24.553 89.664H26.284V89.077H24.553Z" fill="#3371ff"/>
<path transform="matrix(1,0,0,-1,0,136.592)" d="M25.125 90.236H25.712V88.505H25.125Z" fill="#3371ff"/>
<path transform="matrix(1,0,0,-1,0,136.592)" d="M22.381 83.122H24.112V82.535H22.381Z" fill="#3371ff"/>
<path transform="matrix(1,0,0,-1,0,136.592)" d="M22.953 83.694H23.539999V81.963H22.953Z" fill="#3371ff"/>
<path transform="matrix(1,0,0,-1,0,136.592)" d="M35.546 88.217H34.335004V97.368007H35.546Z" fill="#3371ff"/>
<path transform="matrix(1,0,0,-1,0,136.592)" d="M42.345 76.697H41.134004V93.423H42.345Z" fill="#3371ff"/>
<path transform="matrix(1,0,0,-1,0,136.592)" d="M49.273 88.217H48.062V97.368007H49.273Z" fill="#3371ff"/>
<path transform="matrix(1,0,0,-1,0,136.592)" d="M56.1 75.54H54.889V85.384H56.1Z" fill="#3371ff"/>
<path transform="matrix(1,0,0,-1,0,136.592)" d="M49.273 70.81H48.062V81.618999H49.273Z" fill="#3371ff"/>
<path transform="matrix(1,0,0,-1,0,136.592)" d="M46.833 75.54H45.622V77.864H46.833Z" fill="#3371ff"/>
<path transform="matrix(1,0,0,-1,0,136.592)" d="M45.327 77.864H44.116V80.187999H45.327Z" fill="#3371ff"/>
<path transform="matrix(1,0,0,-1,0,136.592)" d="M29.685 74.378H28.473999V76.701999H29.685Z" fill="#3371ff"/>
<path transform="matrix(1,0,0,-1,0,136.592)" d="M30.897 74.378H29.685999V75.54H30.897Z" fill="#3371ff"/>
<path transform="matrix(1,0,0,-1,0,136.592)" d="M32.737 73.215H30.897V74.377H32.737Z" fill="#3371ff"/>
<path transform="matrix(1,0,0,-1,0,136.592)" d="M32.141 75.548H30.897V76.71H32.141Z" fill="#3371ff"/>
<path transform="matrix(1,0,0,-1,0,136.592)" d="M30.913 76.714H29.669V77.876H30.913Z" fill="#3371ff"/>
<path transform="matrix(1,0,0,-1,0,136.592)" d="M32.452 77.976H31.289999V79.138H32.452Z" fill="#3371ff"/>
<path transform="matrix(1,0,0,-1,0,136.592)" d="M31.29 79.138H30.128V80.3H31.29Z" fill="#3371ff"/>
<path transform="matrix(1,0,0,-1,0,136.592)" d="M34.045 80.3H32.883V81.624H34.045Z" fill="#3371ff"/>
<path transform="matrix(1,0,0,-1,0,136.592)" d="M32.883 81.619H31.003V82.882H32.883Z" fill="#3371ff"/>
<path transform="matrix(1,0,0,-1,0,136.592)" d="M31.003 82.881H28.535V84.144H31.003Z" fill="#3371ff"/>
<path transform="matrix(1,0,0,-1,0,136.592)" d="M36.419 80.3H35.257V81.624H36.419Z" fill="#3371ff"/>
<path transform="matrix(1,0,0,-1,0,136.592)" d="M30.128 80.3H28.966V81.462009H30.128Z" fill="#3371ff"/>
<path transform="matrix(1,0,0,-1,0,136.592)" d="M29.698 84.144H28.536V85.383998H29.698Z" fill="#3371ff"/>
<path transform="matrix(1,0,0,-1,0,136.592)" d="M29.698 85.384H28.536V86.624H29.698Z" fill="#3371ff"/>
<path transform="matrix(1,0,0,-1,0,136.592)" d="M31.442 85.67H29.698V86.909999H31.442Z" fill="#3371ff"/>
<path transform="matrix(1,0,0,-1,0,136.592)" d="M35.321 84.371H33.923V85.611H35.321Z" fill="#3371ff"/>
<path transform="matrix(1,0,0,-1,0,136.592)" d="M34.032 87.39H32.937V88.63H34.032Z" fill="#3371ff"/>
<path transform="matrix(1,0,0,-1,0,136.592)" d="M37.761 89.457H36.666V90.697H37.761Z" fill="#3371ff"/>
<path transform="matrix(1,0,0,-1,0,136.592)" d="M39.909 88.217H38.814V89.37H39.909Z" fill="#3371ff"/>
<path transform="matrix(1,0,0,-1,0,136.592)" d="M48.062 88.217H46.967V89.37H48.062Z" fill="#3371ff"/>
<path transform="matrix(1,0,0,-1,0,136.592)" d="M50.368 88.217H49.273V89.37H50.368Z" fill="#3371ff"/>
<path transform="matrix(1,0,0,-1,0,136.592)" d="M39.001 90.696H37.760999V91.936H39.001Z" fill="#3371ff"/>
<path transform="matrix(1,0,0,-1,0,136.592)" d="M41.149 91.936H39.908998V93.411998H41.149Z" fill="#3371ff"/>
<path transform="matrix(1,0,0,-1,0,136.592)" d="M43.585 91.936H42.344999V93.411998H43.585Z" fill="#3371ff"/>
<path transform="matrix(1,0,0,-1,0,136.592)" d="M45.272 93.373H43.585V94.717H45.272Z" fill="#3371ff"/>
<path transform="matrix(1,0,0,-1,0,136.592)" d="M39.909 93.373H38.222V94.717H39.909Z" fill="#3371ff"/>
<path transform="matrix(1,0,0,-1,0,136.592)" d="M38.222 94.718H36.535V96.062007H38.222Z" fill="#3371ff"/>
<path transform="matrix(1,0,0,-1,0,136.592)" d="M46.959 94.718H45.272V96.062007H46.959Z" fill="#3371ff"/>
<path transform="matrix(1,0,0,-1,0,136.592)" d="M48.062 96.062H46.959V97.368H48.062Z" fill="#3371ff"/>
<path transform="matrix(1,0,0,-1,0,136.592)" d="M36.535 96.062H35.432V97.368H36.535Z" fill="#3371ff"/>
<path transform="matrix(1,0,0,-1,0,136.592)" d="M38.063 97.368H35.8V98.673999H38.063Z" fill="#3371ff"/>
<path transform="matrix(1,0,0,-1,0,136.592)" d="M47.534 97.368H45.271V98.673999H47.534Z" fill="#3371ff"/>
<path transform="matrix(1,0,0,-1,0,136.592)" d="M45.559 98.446H43.496V99.752H45.559Z" fill="#3371ff"/>
<path transform="matrix(1,0,0,-1,0,136.592)" d="M39.968 98.446H37.905V99.752H39.968Z" fill="#3371ff"/>
<path transform="matrix(1,0,0,-1,0,136.592)" d="M43.866 99.588H39.637V100.894H43.866Z" fill="#3371ff"/>
<path transform="matrix(1,0,0,-1,0,136.592)" d="M42.373 100.895H41.067V101.921H42.373Z" fill="#3371ff"/>
<path transform="matrix(1,0,0,-1,0,136.592)" d="M37.761 91.835H36.666V93.075H37.761Z" fill="#3371ff"/>
<path transform="matrix(1,0,0,-1,0,136.592)" d="M34.334 88.217H32.936V89.457H34.334Z" fill="#3371ff"/>
<path transform="matrix(1,0,0,-1,0,136.592)" d="M36.666 88.217H35.546V89.457H36.666Z" fill="#3371ff"/>
<path transform="matrix(1,0,0,-1,0,136.592)" d="M39.894 82.893H38.221V84.132999H39.894Z" fill="#3371ff"/>
<path transform="matrix(1,0,0,-1,0,136.592)" d="M45.258 82.893H43.585V84.132999H45.258Z" fill="#3371ff"/>
<path transform="matrix(1,0,0,-1,0,136.592)" d="M54.888 82.893H52.286V84.132999H54.888Z" fill="#3371ff"/>
<path transform="matrix(1,0,0,-1,0,136.592)" d="M46.878 81.639H45.104V82.879H46.878Z" fill="#3371ff"/>
<path transform="matrix(1,0,0,-1,0,136.592)" d="M52.286 81.639H50.512V82.879H52.286Z" fill="#3371ff"/>
<path transform="matrix(1,0,0,-1,0,136.592)" d="M48.104 80.399H46.864V81.639H48.104Z" fill="#3371ff"/>
<path transform="matrix(1,0,0,-1,0,136.592)" d="M50.513 80.399H49.273V81.639H50.513Z" fill="#3371ff"/>
<path transform="matrix(1,0,0,-1,0,136.592)" d="M38.22 81.624H36.419004V82.893H38.22Z" fill="#3371ff"/>
<path transform="matrix(1,0,0,-1,0,136.592)" d="M41.134 84.144H39.893999V85.679H41.134Z" fill="#3371ff"/>
<path transform="matrix(1,0,0,-1,0,136.592)" d="M43.585 84.144H42.344999V85.679H43.585Z" fill="#3371ff"/>
<path transform="matrix(1,0,0,-1,0,136.592)" d="M54.888 84.144H53.648V85.679H54.888Z" fill="#3371ff"/>
<path transform="matrix(1,0,0,-1,0,136.592)" d="M33.011 86.91H31.004002V88.217H33.011Z" fill="#3371ff"/>
<path transform="matrix(1,0,0,-1,0,136.592)" d="M38.076 86.91H36.069V88.217H38.076Z" fill="#3371ff"/>
<path transform="matrix(1,0,0,-1,0,136.592)" d="M47.335 86.851H45.328V88.216999H47.335Z" fill="#3371ff"/>
<path transform="matrix(1,0,0,-1,0,136.592)" d="M52.33 86.851H50V88.216999H52.33Z" fill="#3371ff"/>
<path transform="matrix(1,0,0,-1,0,136.592)" d="M39.909 85.67H37.902V86.909999H39.909Z" fill="#3371ff"/>
<path transform="matrix(1,0,0,-1,0,136.592)" d="M45.592 85.611H43.585V86.851H45.592Z" fill="#3371ff"/>
<path transform="matrix(1,0,0,-1,0,136.592)" d="M54.888 85.611H52.11V86.851H54.888Z" fill="#3371ff"/>
<path transform="matrix(1,0,0,-1,0,136.592)" d="M34.045 71.761H32.736V73.208H34.045Z" fill="#3371ff"/>
<path transform="matrix(1,0,0,-1,0,136.592)" d="M36.565 71.761H35.255998V73.208H36.565Z" fill="#3371ff"/>
<path transform="matrix(1,0,0,-1,0,136.592)" d="M38.216 73.208H36.565V74.378H38.216Z" fill="#3371ff"/>
<path transform="matrix(1,0,0,-1,0,136.592)" d="M39.867 74.374H38.216V75.544H39.867Z" fill="#3371ff"/>
<path transform="matrix(1,0,0,-1,0,136.592)" d="M41.134 75.544H39.868V76.714H41.134Z" fill="#3371ff"/>
<path transform="matrix(1,0,0,-1,0,136.592)" d="M43.611 75.544H42.345V76.714H43.611Z" fill="#3371ff"/>
<path transform="matrix(1,0,0,-1,0,136.592)" d="M45.327 74.374H43.611V75.544H45.327Z" fill="#3371ff"/>
<path transform="matrix(1,0,0,-1,0,136.592)" d="M46.833 73.208H45.117V74.378H46.833Z" fill="#3371ff"/>
<path transform="matrix(1,0,0,-1,0,136.592)" d="M52.217 73.208H50.501V74.378H52.217Z" fill="#3371ff"/>
<path transform="matrix(1,0,0,-1,0,136.592)" d="M53.781 74.374H52.217V75.544H53.781Z" fill="#3371ff"/>
<path transform="matrix(1,0,0,-1,0,136.592)" d="M53.781 70.797H52.217V71.966999H53.781Z" fill="#3371ff"/>
<path transform="matrix(1,0,0,-1,0,136.592)" d="M59.534 70.797H57.207V71.966999H59.534Z" fill="#3371ff"/>
<path transform="matrix(1,0,0,-1,0,136.592)" d="M60.83 71.966H58.370004V73.136H60.83Z" fill="#3371ff"/>
<path transform="matrix(1,0,0,-1,0,136.592)" d="M58.37 73.136H56.099V74.306H58.37Z" fill="#3371ff"/>
<path transform="matrix(1,0,0,-1,0,136.592)" d="M56.143 71.966H54.888V73.136H56.143Z" fill="#3371ff"/>
<path transform="matrix(1,0,0,-1,0,136.592)" d="M53.633 78.976H52.463V80.145999H53.633Z" fill="#3371ff"/>
<path transform="matrix(1,0,0,-1,0,136.592)" d="M56.794 93.543H57.963998V92.373H56.794Z" fill="#3371ff"/>
<path transform="matrix(1,0,0,-1,0,136.592)" d="M52.914 94.406H54.084V93.236H52.914Z" fill="#3371ff"/>
<path transform="matrix(1,0,0,-1,0,136.592)" d="M29.084 94.31H30.254V93.14H29.084Z" fill="#3371ff"/>
<path transform="matrix(1,0,0,-1,0,136.592)" d="M29.113 100.337H30.283V99.167H29.113Z" fill="#3371ff"/>
<path transform="matrix(1,0,0,-1,0,136.592)" d="M24.113 79.033H25.283V77.863H24.113Z" fill="#3371ff"/>
<path transform="matrix(1,0,0,-1,0,136.592)" d="M34.355 103.071H35.524999V101.901H34.355Z" fill="#3371ff"/>
<path transform="matrix(1,0,0,-1,0,136.592)" d="M57.785 69.556H54.888V70.83H57.785Z" fill="#3371ff"/>
<path transform="matrix(1,0,0,-1,0,136.592)" d="M54.888 75.544H53.718004V76.714H54.888Z" fill="#3371ff"/>
<path transform="matrix(1,0,0,-1,0,136.592)" d="M48.062 71.761H46.834V73.212H48.062Z" fill="#3371ff"/>
<path transform="matrix(1,0,0,-1,0,136.592)" d="M50.501 71.759H49.273V73.21H50.501Z" fill="#3371ff"/>
<path transform="matrix(1,0,0,-1,0,136.592)" d="M35.257 70.81H34.046V81.618999H35.257Z" fill="#3371ff"/>
<path transform="matrix(1,0,0,-1,0,136.592)" d="M28.535 69.556H38.216V68.345H28.535Z" fill="#3371ff"/>
<path transform="matrix(1,0,0,-1,0,136.592)" d="M45.327 69.556H55.008V68.345H45.327Z" fill="#3371ff"/>
<path transform="matrix(1,0,0,-1,0,136.592)" d="M39.803 69.556H43.719V68.345H39.803Z" fill="#3371ff"/>
<path transform="matrix(1,0,0,-1,0,136.592)" d="M36.61 70.81H39.803V69.556H36.61Z" fill="#3371ff"/>
<path transform="matrix(1,0,0,-1,0,136.592)" d="M31.608 70.788H32.737V69.577H31.608Z" fill="#3371ff"/>
<path transform="matrix(1,0,0,-1,0,136.592)" d="M29.315 71.935H31.42V70.724H29.315Z" fill="#3371ff"/>
<path transform="matrix(1,0,0,-1,0,136.592)" d="M27.324 73.146H29.314999V71.935009H27.324Z" fill="#3371ff"/>
<path transform="matrix(1,0,0,-1,0,136.592)" d="M25.118 74.374H27.767V73.163H25.118Z" fill="#3371ff"/>
<path transform="matrix(1,0,0,-1,0,136.592)" d="M22.675 73.146H25.418999V71.935009H22.675Z" fill="#3371ff"/>
<path transform="matrix(1,0,0,-1,0,136.592)" d="M24.416 71.935H27.021V70.724H24.416Z" fill="#3371ff"/>
<path transform="matrix(1,0,0,-1,0,136.592)" d="M25.718 70.724H28.779002V69.513H25.718Z" fill="#3371ff"/>
<path transform="matrix(1,0,0,-1,0,136.592)" d="M39.781 72.021H41.259V70.810009H39.781Z" fill="#3371ff"/>
<path transform="matrix(1,0,0,-1,0,136.592)" d="M41.134 73.232H43.606V72.021H41.134Z" fill="#3371ff"/>
<path transform="matrix(1,0,0,-1,0,136.592)" d="M43.605 72.021H45.327V70.810009H43.605Z" fill="#3371ff"/>
<path transform="matrix(1,0,0,-1,0,136.592)" d="M45.327 70.821H46.833V69.556H45.327Z" fill="#3371ff"/>
<path transform="matrix(1,0,0,-1,0,136.592)" d="M28.535 75.54H27.324V85.384H28.535Z" fill="#3371ff"/>
</svg>
