<svg xmlns="http://www.w3.org/2000/svg" viewBox="134.24 33.29 35 35" shape-rendering="crispEdges">
  <g transform="matrix(1,0,0,-1,0,136.592)" fill="#68ff00">
    <path d="M141.592 96.538H145.509V95.169H141.592Z"/>
    <path d="M144.614 97.695H147.946V96.326H144.614Z"/>
    <path d="M146.649 98.856H149.797V97.581H146.649Z"/>
    <path d="M148.105 100.017H151.108V98.742H148.105Z"/>
    <path d="M149.798 101.173H153.673V100.016H149.798Z"/>
    <path d="M151.101 102.33H152.411V101.173007H151.101Z"/>
    <path d="M152.334 100.017H155.681V98.742H152.334Z"/>
    <path d="M153.558 98.856H157.232V97.581H153.558Z"/>
    <path d="M155.889 97.741H159.46V96.371997H155.889Z"/>
    <path d="M158.745 96.538H162.316V95.169H158.745Z"/>
    <path d="M161.803 96.538H163.816V83.701007H161.803Z"/>
    <path d="M160.729 83.874H162.876V81.229007H160.729Z"/>
    <path d="M159.756 81.277H161.565V78.764H159.756Z"/>
    <path d="M158.771 80.02H160.58V77.506999H158.771Z"/>
    <path d="M157.755 78.764H159.56401V76.251H157.755Z"/>
    <path d="M156.595 77.542H158.319V75.196H156.595Z"/>
    <path d="M155.6 76.375H157.015V74.029H155.6Z"/>
    <path d="M154.283 75.203H155.698V72.857H154.283Z"/>
    <path d="M153.306 74.078H154.568V71.732H153.306Z"/>
    <path d="M152.09 73.228H153.35199V70.535999H152.09Z"/>
    <path d="M150.976 72.072H152.23799V69.38H150.976Z"/>
    <path d="M139.663 96.538H141.592V83.579H139.663Z"/>
    <path d="M140.62 83.701999H142.424V81.266H140.62Z"/>
    <path d="M141.777 81.288H143.52599V78.764H141.777Z"/>
    <path d="M142.749 79.968H144.484V77.525H142.749Z"/>
    <path d="M143.795 78.677H145.434V76.369H143.795Z"/>
    <path d="M144.896 77.524997H146.633V75.129H144.896Z"/>
    <path d="M146.173 76.327H147.723V74.078H146.173Z"/>
    <path d="M147.416 75.130008H148.879V72.757H147.416Z"/>
    <path d="M148.713 73.943H150.47499V71.693H148.713Z"/>
    <path d="M149.863 72.927H150.97602V70.536H149.863Z"/>
    <path d="M148.374 85.123H152.271V82.715007H148.374Z"/>
    <path d="M150.975 86.392H153.373V83.854999H150.975Z"/>
    <path d="M152.17401 87.66H154.572V85.123H152.17401Z"/>
    <path d="M153.373 89.031H155.771V86.493999H153.373Z"/>
    <path d="M154.572 90.188H156.97V87.651H154.572Z"/>
    <path d="M155.77101 91.457H158.531V88.92H155.77101Z"/>
    <path d="M146.98201 86.457H149.38V83.92H146.98201Z"/>
    <path d="M145.626 87.66H148.024V85.123H145.626Z"/>
  </g>
</svg>
