<?xml version="1.0" encoding="UTF-8"?>
<svg xmlns="http://www.w3.org/2000/svg" width="47" height="41" viewBox="129 31 47 41">
<path transform="matrix(1,0,0,-1,0,136.592)" d="M176.379 94.871H177.739V93.511H176.379Z" fill="#68ff00"/>
<path transform="matrix(1,0,0,-1,0,136.592)" d="M177.74 93.525H179.1V92.165H177.74Z" fill="#68ff00"/>
<path transform="matrix(1,0,0,-1,0,136.592)" d="M179.1 92.165H180.46V90.805H179.1Z" fill="#68ff00"/>
<path transform="matrix(1,0,0,-1,0,136.592)" d="M180.46 90.805H181.82V89.445H180.46Z" fill="#68ff00"/>
<path transform="matrix(1,0,0,-1,0,136.592)" d="M181.821 89.444H183.181V88.084H181.821Z" fill="#68ff00"/>
<path transform="matrix(1,0,0,-1,0,136.592)" d="M180.46 88.084H181.82V86.724H180.46Z" fill="#68ff00"/>
<path transform="matrix(1,0,0,-1,0,136.592)" d="M179.1 86.724H180.46V85.364H179.1Z" fill="#68ff00"/>
<path transform="matrix(1,0,0,-1,0,136.592)" d="M177.74 85.363H179.1V84.003H177.74Z" fill="#68ff00"/>
<path transform="matrix(1,0,0,-1,0,136.592)" d="M176.379 84.003H177.739V82.643H176.379Z" fill="#68ff00"/>
<path transform="matrix(1,0,0,-1,0,136.592)" d="M127.401 58.84H128.571V57.670003H127.401Z" fill="#68ff00"/>
<path transform="matrix(1,0,0,-1,0,136.592)" d="M130.051 58.841H131.221V57.671H130.051Z" fill="#68ff00"/>
<path transform="matrix(1,0,0,-1,0,136.592)" d="M132.701 58.841H133.871V57.671H132.701Z" fill="#68ff00"/>
<path transform="matrix(1,0,0,-1,0,136.592)" d="M135.351 58.842H136.521V57.672H135.351Z" fill="#68ff00"/>
<path transform="matrix(1,0,0,-1,0,136.592)" d="M138.001 58.843H139.171V57.673H138.001Z" fill="#68ff00"/>
<path transform="matrix(1,0,0,-1,0,136.592)" d="M140.652 58.844H141.82199V57.674005H140.652Z" fill="#68ff00"/>
<path transform="matrix(1,0,0,-1,0,136.592)" d="M143.302 58.844H144.472V57.674005H143.302Z" fill="#68ff00"/>
<path transform="matrix(1,0,0,-1,0,136.592)" d="M145.952 58.845H147.122V57.675004H145.952Z" fill="#68ff00"/>
<path transform="matrix(1,0,0,-1,0,136.592)" d="M148.602 58.846H149.772V57.676004H148.602Z" fill="#68ff00"/>
<path transform="matrix(1,0,0,-1,0,136.592)" d="M151.252 58.846H152.422V57.676004H151.252Z" fill="#68ff00"/>
<path transform="matrix(1,0,0,-1,0,136.592)" d="M153.902 58.847H155.07199V57.677003H153.902Z" fill="#68ff00"/>
<path transform="matrix(1,0,0,-1,0,136.592)" d="M156.553 58.848H157.72299V57.678H156.553Z" fill="#68ff00"/>
<path transform="matrix(1,0,0,-1,0,136.592)" d="M159.203 58.849H160.373V57.679H159.203Z" fill="#68ff00"/>
<path transform="matrix(1,0,0,-1,0,136.592)" d="M161.853 58.849H163.023V57.679H161.853Z" fill="#68ff00"/>
<path transform="matrix(1,0,0,-1,0,136.592)" d="M164.503 58.85H165.673V57.68H164.503Z" fill="#68ff00"/>
<path transform="matrix(1,0,0,-1,0,136.592)" d="M167.153 58.851H168.323V57.681005H167.153Z" fill="#68ff00"/>
<path transform="matrix(1,0,0,-1,0,136.592)" d="M169.803 58.851H170.97299V57.681005H169.803Z" fill="#68ff00"/>
<path transform="matrix(1,0,0,-1,0,136.592)" d="M172.453 58.852H173.623V57.682004H172.453Z" fill="#68ff00"/>
<path transform="matrix(1,0,0,-1,0,136.592)" d="M137.35 92.466H138.507V91.309009H137.35Z" fill="#68ff00"/>
<path transform="matrix(1,0,0,-1,0,136.592)" d="M137.35 88.805H138.507V87.648H137.35Z" fill="#68ff00"/>
<path transform="matrix(1,0,0,-1,0,136.592)" d="M135.582 89.961H136.739V88.804H135.582Z" fill="#68ff00"/>
<path transform="matrix(1,0,0,-1,0,136.592)" d="M137.35 86.613H138.507V85.456H137.35Z" fill="#68ff00"/>
<path transform="matrix(1,0,0,-1,0,136.592)" d="M135.278 95.401H136.435V94.244H135.278Z" fill="#68ff00"/>
<path transform="matrix(1,0,0,-1,0,136.592)" d="M137.35 98.013H138.507V96.856H137.35Z" fill="#68ff00"/>
<path transform="matrix(1,0,0,-1,0,136.592)" d="M139.63 100.39H140.787V99.233H139.63Z" fill="#68ff00"/>
<path transform="matrix(1,0,0,-1,0,136.592)" d="M142.601 102.849H143.758V101.692H142.601Z" fill="#68ff00"/>
<path transform="matrix(1,0,0,-1,0,136.592)" d="M143.758 100.192H144.915V99.035H143.758Z" fill="#68ff00"/>
<path transform="matrix(1,0,0,-1,0,136.592)" d="M149.798 101.173H153.673V100.016H149.798Z" fill="#68ff00"/>
<path transform="matrix(1,0,0,-1,0,136.592)" d="M151.101 102.33H152.411V101.173007H151.101Z" fill="#68ff00"/>
<path transform="matrix(1,0,0,-1,0,136.592)" d="M142.601 99.035H143.758V97.878009H142.601Z" fill="#68ff00"/>
<path transform="matrix(1,0,0,-1,0,136.592)" d="M141.592 97.695H142.749V96.538H141.592Z" fill="#68ff00"/>
<path transform="matrix(1,0,0,-1,0,136.592)" d="M151.178 97.695H152.33499V96.538H151.178Z" fill="#68ff00"/>
<path transform="matrix(1,0,0,-1,0,136.592)" d="M149.579 92.466H150.736V91.309009H149.579Z" fill="#68ff00"/>
<path transform="matrix(1,0,0,-1,0,136.592)" d="M146.789 92.466H147.946V91.309009H146.789Z" fill="#68ff00"/>
<path transform="matrix(1,0,0,-1,0,136.592)" d="M144.22 92.466H145.377V91.309009H144.22Z" fill="#68ff00"/>
<path transform="matrix(1,0,0,-1,0,136.592)" d="M142.749 93.897H143.232V91.789H142.749Z" fill="#68ff00"/>
<path transform="matrix(1,0,0,-1,0,136.592)" d="M142.874 93.897H144.03099V92.740009H142.874Z" fill="#68ff00"/>
<path transform="matrix(1,0,0,-1,0,136.592)" d="M142.874 90.188H144.03099V89.031009H142.874Z" fill="#68ff00"/>
<path transform="matrix(1,0,0,-1,0,136.592)" d="M142.749 87.648H143.90599V86.257H142.749Z" fill="#68ff00"/>
<path transform="matrix(1,0,0,-1,0,136.592)" d="M143.906 84.614H145.063V82.715999H143.906Z" fill="#68ff00"/>
<path transform="matrix(1,0,0,-1,0,136.592)" d="M145.669 81.288H146.826V79.968H145.669Z" fill="#68ff00"/>
<path transform="matrix(1,0,0,-1,0,136.592)" d="M147.875 78.764H149.032V77.444H147.875Z" fill="#68ff00"/>
<path transform="matrix(1,0,0,-1,0,136.592)" d="M150.976 78.764H152.133V77.444H150.976Z" fill="#68ff00"/>
<path transform="matrix(1,0,0,-1,0,136.592)" d="M149.663 82.812H150.983V81.492H149.663Z" fill="#68ff00"/>
<path transform="matrix(1,0,0,-1,0,136.592)" d="M154.085 78.764H155.242V77.444H154.085Z" fill="#68ff00"/>
<path transform="matrix(1,0,0,-1,0,136.592)" d="M156.473 81.288H157.63V79.968H156.473Z" fill="#68ff00"/>
<path transform="matrix(1,0,0,-1,0,136.592)" d="M158.323 83.872H159.48V82.715007H158.323Z" fill="#68ff00"/>
<path transform="matrix(1,0,0,-1,0,136.592)" d="M150.976 76.199H152.133V75.042H150.976Z" fill="#68ff00"/>
<path transform="matrix(1,0,0,-1,0,136.592)" d="M151.883 95.054H153.04V93.897H151.883Z" fill="#68ff00"/>
<path transform="matrix(1,0,0,-1,0,136.592)" d="M154.085 96.326H155.242V95.169H154.085Z" fill="#68ff00"/>
<path transform="matrix(1,0,0,-1,0,136.592)" d="M156.581 95.054H157.73799V93.897H156.581Z" fill="#68ff00"/>
<path transform="matrix(1,0,0,-1,0,136.592)" d="M158.902 94.162H160.60599V93.005008H158.902Z" fill="#68ff00"/>
<path transform="matrix(1,0,0,-1,0,136.592)" d="M148.453 96.326H150.157V95.169H148.453Z" fill="#68ff00"/>
<path transform="matrix(1,0,0,-1,0,136.592)" d="M145.669 95.17H148.45401V94.013H145.669Z" fill="#68ff00"/>
<path transform="matrix(1,0,0,-1,0,136.592)" d="M141.592 96.538H145.509V95.169H141.592Z" fill="#68ff00"/>
<path transform="matrix(1,0,0,-1,0,136.592)" d="M144.614 97.695H147.946V96.326H144.614Z" fill="#68ff00"/>
<path transform="matrix(1,0,0,-1,0,136.592)" d="M155.889 97.741H159.46V96.371997H155.889Z" fill="#68ff00"/>
<path transform="matrix(1,0,0,-1,0,136.592)" d="M158.745 96.538H162.316V95.169H158.745Z" fill="#68ff00"/>
<path transform="matrix(1,0,0,-1,0,136.592)" d="M153.558 98.856H157.232V97.581H153.558Z" fill="#68ff00"/>
<path transform="matrix(1,0,0,-1,0,136.592)" d="M146.649 98.856H149.797V97.581H146.649Z" fill="#68ff00"/>
<path transform="matrix(1,0,0,-1,0,136.592)" d="M148.105 100.017H151.108V98.742H148.105Z" fill="#68ff00"/>
<path transform="matrix(1,0,0,-1,0,136.592)" d="M152.334 100.017H155.681V98.742H152.334Z" fill="#68ff00"/>
<path transform="matrix(1,0,0,-1,0,136.592)" d="M145.765 102.849H146.922V101.692H145.765Z" fill="#68ff00"/>
<path transform="matrix(1,0,0,-1,0,136.592)" d="M148.308 102.849H149.465V101.692H148.308Z" fill="#68ff00"/>
<path transform="matrix(1,0,0,-1,0,136.592)" d="M154.263 102.932H155.42V101.775H154.263Z" fill="#68ff00"/>
<path transform="matrix(1,0,0,-1,0,136.592)" d="M156.971 102.711H158.12799V101.554H156.971Z" fill="#68ff00"/>
<path transform="matrix(1,0,0,-1,0,136.592)" d="M160.37 102.932H161.527V101.775H160.37Z" fill="#68ff00"/>
<path transform="matrix(1,0,0,-1,0,136.592)" d="M158.547 100.39H159.704V99.233H158.547Z" fill="#68ff00"/>
<path transform="matrix(1,0,0,-1,0,136.592)" d="M163.714 100.39H164.871V99.233H163.714Z" fill="#68ff00"/>
<path transform="matrix(1,0,0,-1,0,136.592)" d="M160.605 99.035H161.762V97.878009H160.605Z" fill="#68ff00"/>
<path transform="matrix(1,0,0,-1,0,136.592)" d="M165.649 97.985H166.806V96.828H165.649Z" fill="#68ff00"/>
<path transform="matrix(1,0,0,-1,0,136.592)" d="M167.514 95.319H168.671V94.162H167.514Z" fill="#68ff00"/>
<path transform="matrix(1,0,0,-1,0,136.592)" d="M164.944 92.555H166.101V91.398H164.944Z" fill="#68ff00"/>
<path transform="matrix(1,0,0,-1,0,136.592)" d="M164.944 89.031H166.101V87.874H164.944Z" fill="#68ff00"/>
<path transform="matrix(1,0,0,-1,0,136.592)" d="M168.093 89.031H169.25V87.874H168.093Z" fill="#68ff00"/>
<path transform="matrix(1,0,0,-1,0,136.592)" d="M164.944 86.641H166.101V85.484H164.944Z" fill="#68ff00"/>
<path transform="matrix(1,0,0,-1,0,136.592)" d="M168.093 83.601H169.25V82.444H168.093Z" fill="#68ff00"/>
<path transform="matrix(1,0,0,-1,0,136.592)" d="M165.292 82.444H166.449V81.287H165.292Z" fill="#68ff00"/>
<path transform="matrix(1,0,0,-1,0,136.592)" d="M160.788 81.277H161.94499V79.968H160.788Z" fill="#68ff00"/>
<path transform="matrix(1,0,0,-1,0,136.592)" d="M163.787 83.702H164.944V82.545009H163.787Z" fill="#68ff00"/>
<path transform="matrix(1,0,0,-1,0,136.592)" d="M163.787 79.833H164.944V78.676H163.787Z" fill="#68ff00"/>
<path transform="matrix(1,0,0,-1,0,136.592)" d="M162.171 77.525H163.328V76.368007H162.171Z" fill="#68ff00"/>
<path transform="matrix(1,0,0,-1,0,136.592)" d="M166.936 78.548H168.093V77.391H166.936Z" fill="#68ff00"/>
<path transform="matrix(1,0,0,-1,0,136.592)" d="M160.195 75.129H161.352V73.972H160.195Z" fill="#68ff00"/>
<path transform="matrix(1,0,0,-1,0,136.592)" d="M164.451 74.447H165.608V73.29H164.451Z" fill="#68ff00"/>
<path transform="matrix(1,0,0,-1,0,136.592)" d="M161.273 71.693H162.43V70.536H161.273Z" fill="#68ff00"/>
<path transform="matrix(1,0,0,-1,0,136.592)" d="M158.519 73.913H159.676V72.756008H158.519Z" fill="#68ff00"/>
<path transform="matrix(1,0,0,-1,0,136.592)" d="M156.556 71.537H157.713V70.380008H156.556Z" fill="#68ff00"/>
<path transform="matrix(1,0,0,-1,0,136.592)" d="M154.244 70.431H155.401V69.274H154.244Z" fill="#68ff00"/>
<path transform="matrix(1,0,0,-1,0,136.592)" d="M150.976 72.072H152.23799V69.38H150.976Z" fill="#68ff00"/>
<path transform="matrix(1,0,0,-1,0,136.592)" d="M152.09 73.228H153.35199V70.535999H152.09Z" fill="#68ff00"/>
<path transform="matrix(1,0,0,-1,0,136.592)" d="M153.306 74.078H154.568V71.732H153.306Z" fill="#68ff00"/>
<path transform="matrix(1,0,0,-1,0,136.592)" d="M154.283 75.203H155.698V72.857H154.283Z" fill="#68ff00"/>
<path transform="matrix(1,0,0,-1,0,136.592)" d="M155.6 76.375H157.015V74.029H155.6Z" fill="#68ff00"/>
<path transform="matrix(1,0,0,-1,0,136.592)" d="M156.595 77.542H158.319V75.196H156.595Z" fill="#68ff00"/>
<path transform="matrix(1,0,0,-1,0,136.592)" d="M157.755 78.764H159.56401V76.251H157.755Z" fill="#68ff00"/>
<path transform="matrix(1,0,0,-1,0,136.592)" d="M158.771 80.02H160.58V77.506999H158.771Z" fill="#68ff00"/>
<path transform="matrix(1,0,0,-1,0,136.592)" d="M159.756 81.277H161.565V78.764H159.756Z" fill="#68ff00"/>
<path transform="matrix(1,0,0,-1,0,136.592)" d="M141.405 81.288H143.214V79.968H141.405Z" fill="#68ff00"/>
<path transform="matrix(1,0,0,-1,0,136.592)" d="M160.729 83.874H162.876V81.229007H160.729Z" fill="#68ff00"/>
<path transform="matrix(1,0,0,-1,0,136.592)" d="M161.803 96.538H163.816V83.701007H161.803Z" fill="#68ff00"/>
<path transform="matrix(1,0,0,-1,0,136.592)" d="M147.722 70.431H148.879V69.274H147.722Z" fill="#68ff00"/>
<path transform="matrix(1,0,0,-1,0,136.592)" d="M145.594 71.537H146.75099V70.380008H145.594Z" fill="#68ff00"/>
<path transform="matrix(1,0,0,-1,0,136.592)" d="M141.27 71.537H142.427V70.380008H141.27Z" fill="#68ff00"/>
<path transform="matrix(1,0,0,-1,0,136.592)" d="M142.057 75.129H143.214V73.972H142.057Z" fill="#68ff00"/>
<path transform="matrix(1,0,0,-1,0,136.592)" d="M140.62 77.525H141.777V76.368007H140.62Z" fill="#68ff00"/>
<path transform="matrix(1,0,0,-1,0,136.592)" d="M139.463 78.682H140.62V77.525H139.463Z" fill="#68ff00"/>
<path transform="matrix(1,0,0,-1,0,136.592)" d="M138.372 79.839H139.832V78.682H138.372Z" fill="#68ff00"/>
<path transform="matrix(1,0,0,-1,0,136.592)" d="M137.35 82.423H138.507V81.266H137.35Z" fill="#68ff00"/>
<path transform="matrix(1,0,0,-1,0,136.592)" d="M138.507 83.579H139.664V82.422008H138.507Z" fill="#68ff00"/>
<path transform="matrix(1,0,0,-1,0,136.592)" d="M134.41 83.579H135.567V82.422008H134.41Z" fill="#68ff00"/>
<path transform="matrix(1,0,0,-1,0,136.592)" d="M135.567 78.682H136.724V77.525H135.567Z" fill="#68ff00"/>
<path transform="matrix(1,0,0,-1,0,136.592)" d="M143.632 73.913H144.789V72.756008H143.632Z" fill="#68ff00"/>
<path transform="matrix(1,0,0,-1,0,136.592)" d="M138.188 74.447H139.345V73.29H138.188Z" fill="#68ff00"/>
<path transform="matrix(1,0,0,-1,0,136.592)" d="M134.425 88.805H135.582V87.648H134.425Z" fill="#68ff00"/>
<path transform="matrix(1,0,0,-1,0,136.592)" d="M141.592 83.579H139.663V96.538H141.592Z" fill="#68ff00"/>
<path transform="matrix(1,0,0,-1,0,136.592)" d="M140.62 81.266H142.424V83.701999H140.62Z" fill="#68ff00"/>
<path transform="matrix(1,0,0,-1,0,136.592)" d="M141.777 78.764H143.52599V81.288H141.777Z" fill="#68ff00"/>
<path transform="matrix(1,0,0,-1,0,136.592)" d="M142.749 77.525H144.484V79.968H142.749Z" fill="#68ff00"/>
<path transform="matrix(1,0,0,-1,0,136.592)" d="M143.795 76.369H145.434V78.677H143.795Z" fill="#68ff00"/>
<path transform="matrix(1,0,0,-1,0,136.592)" d="M144.896 75.129H146.633V77.524997H144.896Z" fill="#68ff00"/>
<path transform="matrix(1,0,0,-1,0,136.592)" d="M146.173 74.078H147.723V76.327H146.173Z" fill="#68ff00"/>
<path transform="matrix(1,0,0,-1,0,136.592)" d="M147.416 72.757H148.879V75.130008H147.416Z" fill="#68ff00"/>
<path transform="matrix(1,0,0,-1,0,136.592)" d="M148.713 71.693H150.47499V73.943H148.713Z" fill="#68ff00"/>
<path transform="matrix(1,0,0,-1,0,136.592)" d="M149.863 70.536H150.97602V72.927H149.863Z" fill="#68ff00"/>
<path transform="matrix(1,0,0,-1,0,136.592)" d="M152.271 85.123H148.374V82.715007H152.271Z" fill="#68ff00"/>
<path transform="matrix(1,0,0,-1,0,136.592)" d="M153.373 86.392H150.975V83.854999H153.373Z" fill="#68ff00"/>
<path transform="matrix(1,0,0,-1,0,136.592)" d="M154.572 87.66H152.17401V85.123H154.572Z" fill="#68ff00"/>
<path transform="matrix(1,0,0,-1,0,136.592)" d="M155.771 89.031H153.373V86.493999H155.771Z" fill="#68ff00"/>
<path transform="matrix(1,0,0,-1,0,136.592)" d="M156.97 90.188H154.572V87.651H156.97Z" fill="#68ff00"/>
<path transform="matrix(1,0,0,-1,0,136.592)" d="M158.531 91.457H155.77101V88.92H158.531Z" fill="#68ff00"/>
<path transform="matrix(1,0,0,-1,0,136.592)" d="M149.38 86.457H146.98201V83.92H149.38Z" fill="#68ff00"/>
<path transform="matrix(1,0,0,-1,0,136.592)" d="M148.024 87.66H145.626V85.123H148.024Z" fill="#68ff00"/>
</svg>
